<svg height="80" viewBox="0 0 80 80" width="80" xmlns="http://www.w3.org/2000/svg"><g fill="none" fill-rule="evenodd"><path d="m0 0h80v80h-80z" fill="#fff" opacity="0"/><path d="m34.8586498 39.1647428c-1.4028613.1678267-3.53429.436179-4.0488028.5752536-.5238477.1403525-1.0346699.4666349-1.2582767 1.2329298-.1469726.5036931-.4183401 2.6002488-.5870221 3.9775777 2.4108286-1.4299345 4.4378351-3.4197882 5.8941016-5.7857611zm-14.8507479 8.2288321c3.0410524 0 5.8986605-.7690637 8.3833011-2.1184925-.1626034-1.3453822-.4678375-3.7569324-.6278358-4.3021562-.2216529-.7662949-.7333435-1.0925773-1.2552374-1.2329298-.7871828-.2119131-5.3194538-.7232734-5.3194538-.7232734v-.3066883c0 0 4.532271-.5113603 5.3194538-.7239123.5218939-.1405655 1.0335845-.4647181 1.2552374-1.2329299.212535-.7260421.6923127-4.807766.7433298-5.2460748-3.1081345.5643918-5.2393461 1.9711117-7.9109046 3.3111694-2.8404577 1.425036-5.6116623 2.4469046-9.2173762 2.4469046-3.17977556 0-6.00829302-1.0137754-8.05939695-2.258419 2.05240649 7.1475427 8.74671645 12.3868022 16.68888265 12.3868022zm-17.0549031-36.6552227h1.85767319v-1.42418405h.66170245c1.73002193 0 2.82417559-.87427481 2.82417559-2.39813261 0-1.67400731-1.17035365-2.27332748-3.07860973-2.27332748-.73833663 0-1.62842195.04983686-2.2649415.12480512zm6.08167076 0h1.85767314v-2.34829572h1.9338732v2.34829572h1.8576732v-5.97083902h-1.8576732v2.37321418h-1.9338732v-2.37321418h-1.85767314zm7.02320734 0h1.8574561v-5.97083902h-1.8574561zm3.2314439 0h3.358661l.279617-1.19927925h-1.7808219v-4.77155977h-1.8574561zm4.2999805 0h1.8578902v-5.97083902h-1.8578902zm3.2574951 0h1.8570219v-1.42418405h.6617025c1.730239 0 2.8248269-.87427481 2.8248269-2.39813261 0-1.67400731-1.171005-2.27332748-3.0792611-2.27332748-.7374682 0-1.6288561.04983686-2.2642902.12480512zm-6.8388945 2.6385848c-1.4677724 0-2.8923431.1797535-4.2535224.5166847.0727265.5984683.2798342 2.2594839.381217 2.6059992.1239607.4242522.4068342.6046446.6968717.6828076.4335367.1171379 2.8754098.3882589 2.8754098.3882589v.1701695c0 0-2.4418731.2830478-2.8754098.4001857-.2900375.0779499-.572911.2585553-.6968717.6825946-.0966068.3301159-.2893862 1.8546126-.3701452 2.5150575 1.4443263.1878466 2.9954627.3627016 2.9954627.3627016v.3066883c0 0-4.5331393.5115733-5.3168486.7232734-.5238478.1403526-1.0344528.4666349-1.2582767 1.2329298-.2064564.708152-.6588803 4.5632673-.7263965 5.1440584 3.1921499-.5705682 5.9236264-2.1947386 7.9736448-3.1661314 2.9147038-1.3807366 5.5843085-2.5122888 9.2256258-2.5122888 3.1656644 0 5.9594468.9950333 8.0077285 2.2320097-2.0864902-7.095363-8.7543147-12.2849987-16.6584894-12.2849987zm15.6427067-4.28746067c0 .37484133-.279617.57461472-.9665024.57461472-.6109025 0-1.5524391-.19977339-2.1121073-.47472802l.2031999 1.37413427c.5598854.1997734 1.3229707.299873 1.9340903.299873 1.5524391 0 2.8246098-.4998594 2.8246098-1.99901175 0-1.99815987-2.9259927-1.62374449-2.9259927-2.57277459 0-.32479149.3306341-.47515398.8649024-.47515398.5848512 0 1.2215879.12523108 1.653822.300512l-.1526171-1.29959194c-.4832512-.09988669-.9163537-.17464198-1.704839-.17464198-1.5012049 0-2.5195928.58057811-2.5195928 1.79881243 0 2.09847252 2.9010269 1.67379433 2.9010269 2.64795584zm-6.8447561 22.36886947c.0403795.3473671.5314461 4.5592206.7457178 5.2948467.2236068.7682118.734429 1.0923644 1.2582767 1.2329299.5570632.1512144 3.0091397.4532172 4.3800882.6152935 1.0542083-1.870799 1.7593296-3.9567058 2.0298287-6.1740201-1.9110783-.7547941-4.1080694-1.1468867-5.9110349-1.1468867-.9135315 0-1.7400083.0636804-2.5028765.1778367zm-19.66328723-10.4808618c.52167683-.1405655 1.03358443-.4645051 1.25502033-1.2329298.1443675-.4924053.4068341-2.5020659.5761674-3.87833-2.35481841 1.4133222-4.33927449 3.3622842-5.77708791 5.6745866 1.40199292-.1684656 3.44202505-.4270209 3.94590018-.5633268zm-6.336322 7.2738386c1.90152617.7422284 4.08136683 1.1132362 5.88368105 1.1132362.85187677 0 1.66250568-.0728385 2.43492608-.1980696-.0696872-.6095431-.5201572-4.4963922-.7272648-5.2022014-.2214359-.7662949-.7333435-1.0925772-1.25502033-1.2329298-.54772812-.1473808-2.90775677-.4395866-4.29325055-.6040057-1.05268871 1.8556776-1.76215184 3.9243332-2.04307145 6.1239703zm12.33875343-9.4276854c-.122441-.4240393-.4055315-.6046447-.6947007-.6825946-.344094-.0924325-1.9364783-.2881593-2.5925363-.3665352.1217897.8874794.2450991 1.6842302.328029 1.9700468.2238239.7684247.7344289 1.0923643 1.2582767 1.2329298.2982871.0809316 1.1399605.2053108 2.0678201.3279861-.0829299-.6768441-.2711503-2.1568285-.3668888-2.4818329zm0-2.3240163c.0987778-.3356534.2963333-1.9035976.3747042-2.5459394-1.3937433.3654703-2.7184508.8970635-3.950242 1.5717779.0690359.5701422.1613008 1.3098149.256388 2.016689.6352169-.0728385 2.2749278-.2657966 2.6244491-.3597199.2891692-.078163.5722597-.2585554.6947007-.6828076zm-12.34418078 15.9931591c2.1926492 1.3694488 5.24499056 2.0471449 7.80235768 2.0471449 3.8746933 0 6.2073681-1.1317653 8.7621301-2.3821593 3.5117122-1.7187327 6.4266331-3.5313887 11.0023229-3.5079611 2.769685.0142695 5.2169854.7251902 6.9758809 1.6422736-.0030394-.7160322-.0508-1.4216284-.1413282-2.1142329-2.1909125-1.3598647-5.2332675-2.0584327-7.7806483-2.0584327-3.8742591 0-6.2008553 1.1622211-8.7580053 2.4079296-3.2813755 1.5988261-6.4227254 3.5198879-10.98386993 3.5198879-2.77815166 0-7.00887914-1.6680439-7.00887914-1.6618676 0 .7060222.04472136 1.4237582.13003929 2.1074176zm37.19927058-31.41766691v29.29278511c0 10.8158763-8.9737968 19.6321018-19.9993487 19.6321018-11.21768017 0-20.00065131-8.8162255-20.00065131-19.6321018v-29.29278511c2.60447647-.3149945 10.95391091-1.07511309 20.00108551-1.07511309 8.84506 0 17.3132449.71326342 19.9989145 1.07511309zm-15.269088 41.12499251c-.0968239-.3305419-.3169572-2.1964424-.3169572-2.1964424h-.1367692c0 0-.2203504 1.8659005-.3171743 2.1964424-.0955214.3311809-.3158718.4708945-.5412153.5315932-.3393179.0915806-2.2397586.3120128-2.2397586.3120128v.1322594c0 0 1.9004407.2204322 2.2397586.3115868.2253435.0606988.4456939.2012643.5412153.5313802.0968239.3305419.3171743 2.1968684.3171743 2.1968684h.1367692c0 0 .2201333-1.8663265.3169572-2.1968684.0963897-.3301159.316523-.4706814.5423008-.5313802.337364-.0911546 2.2382389-.3115868 2.2382389-.3115868v-.1322594c0 0-1.9008749-.2204322-2.2382389-.3120128-.2257778-.0606987-.4459111-.2004123-.5423008-.5315932zm5.7180383-35.25915163c0-.74946968-.4326683-1.17414787-1.3483707-1.17414787-.0957384 0-.1975555 0-.3058854.00638934v2.46671153h.3058854c.9665024 0 1.3483707-.52477786 1.3483707-1.298953zm-25.24173411 1.298953h-.30566832v-2.46671153c.1081128-.00638934.21014697-.00638934.30566832-.00638934.9159195 0 1.3485878.42467819 1.3485878 1.17414787 0 .77417514-.3820854 1.298953-1.3485878 1.298953z" fill="#fefefe" transform="translate(20 15)"/></g></svg>