<svg xmlns="http://www.w3.org/2000/svg" width="56" height="56" viewBox="0 0 56 56">
    <g fill="none" fill-rule="evenodd">
        <path d="M0 0h56v56H0z"/>
        <circle cx="28" cy="28" r="28" fill="#FFF"/>
        <path fill="#5D9621" d="M44 31.186c-.471 2.964-2.228 7.777-5.376 7.777H25.934c-3.147 0-4.904-4.813-5.375-7.777H44zm-6.203-9.632l-.002-.067c-.003-.052-.002-.079-.001-.111v-.037l.001-.029.002-.057a3.541 3.541 0 0 1 .23-1.103c.106-.279.246-.54.409-.778a3.692 3.692 0 0 1 1.22-1.104 3.89 3.89 0 0 1 .525-.24l.04-.014.01-.004.005-.001.022-.009h-.002.002l.34.793-.01.005-.015.008.01-.004-.004.002-.01.005-.036.02c-.054.027-.088.05-.127.073-.082.05-.165.104-.244.164a3.094 3.094 0 0 0-.63.643c-.058.082-.11.17-.162.257a2.646 2.646 0 0 0-.34 1.319l.001.038.001.02v-.002.012c.002.031.003.068.006.08l.002.027.005.034c.002.023.006.046.01.069.008.045.017.091.03.138.093.374.31.774.56 1.175.25.405.539.814.793 1.266.127.227.246.465.342.725.096.257.165.54.184.835.003.073.005.147.002.222l-.004.08-.007.101c-.005.071-.013.13-.02.193-.01.062-.018.123-.031.184a3.633 3.633 0 0 1-2.065 2.617c-.061.03-.11.048-.142.062-.008.003-.015.006-.021.01a.055.055 0 0 0-.009.002l-.004.002s-.002 0-.003-.003l-.004-.008a43.834 43.834 0 0 1-.137-.27l-.058-.117-.052-.119-.105-.248a1.19 1.19 0 0 0-.013-.031l-.003-.009c-.002-.004-.004-.004-.003-.003l.004-.002a.045.045 0 0 1 .005-.003.103.103 0 0 1 .016-.01c.023-.014.057-.032.1-.06a2.95 2.95 0 0 0 .812-.767c.148-.214.294-.468.384-.767.046-.148.082-.306.101-.47.006-.041.008-.084.013-.125.002-.041.006-.088.005-.123l.002-.059v-.08a1.41 1.41 0 0 0-.008-.105c-.03-.284-.183-.635-.405-1.01-.221-.377-.502-.777-.777-1.228a7.195 7.195 0 0 1-.394-.726 3.894 3.894 0 0 1-.29-.858 2.81 2.81 0 0 1-.04-.237c-.004-.04-.009-.08-.012-.121l-.004-.062zm-5.692 0l-.002-.067c-.002-.052-.002-.079-.001-.111v-.037l.001-.029.003-.057a3.652 3.652 0 0 1 .096-.674c.035-.146.08-.29.133-.43.106-.278.246-.539.409-.777a3.699 3.699 0 0 1 1.22-1.104 3.89 3.89 0 0 1 .526-.24l.04-.014.009-.004.005-.001a.724.724 0 0 0 .022-.009h-.002.003l.34.793-.01.005-.016.008.01-.004-.004.002-.009.005-.037.02c-.054.027-.088.05-.127.073a2.99 2.99 0 0 0-.684.57 2.915 2.915 0 0 0-.351.494 2.65 2.65 0 0 0-.34 1.319v.038l.001.02v-.002.012c.002.031.003.068.006.08l.003.027.004.034c.002.023.007.046.01.069.008.045.017.091.03.138.093.374.31.774.561 1.175.25.405.538.814.792 1.266.128.227.246.465.342.725.096.257.166.54.184.835.003.073.005.147.002.222l-.004.08a9.622 9.622 0 0 0-.007.101c-.005.071-.013.13-.02.193-.01.062-.018.123-.03.184a3.645 3.645 0 0 1-2.065 2.617c-.062.03-.11.048-.143.062-.008.003-.015.006-.021.01a.07.07 0 0 0-.009.002l-.003.002s-.003 0-.004-.003l-.004-.008-.016-.03-.121-.24-.058-.117-.052-.119a80.211 80.211 0 0 0-.105-.248l-.013-.031-.003-.009c-.002-.004-.004-.004-.003-.003l.004-.002.006-.003a.1.1 0 0 1 .015-.01c.023-.014.057-.032.101-.06a2.96 2.96 0 0 0 .812-.767c.147-.214.293-.468.383-.767.046-.148.082-.306.101-.47.006-.041.009-.084.013-.125.002-.041.006-.088.006-.123l.001-.059v-.08a1.34 1.34 0 0 0-.008-.105c-.029-.284-.182-.635-.405-1.01-.22-.377-.502-.777-.777-1.228a7.209 7.209 0 0 1-.394-.726 3.894 3.894 0 0 1-.29-.858 2.755 2.755 0 0 1-.039-.237c-.005-.04-.01-.08-.012-.121l-.005-.062zm-11.588 15.61c.4.707.82 1.286 1.246 1.76h-5.29c-.75 0-1.644-.592-1.644-1.474L12 18.107h2.382l.446 3.838c1.428-.46 3.637-.748 5.827.562 2.258 1.35 4.434 1.08 5.78.67l.012-.041.738-5.03h2.38V18.116l-.001.006v.004a.554.554 0 0 1-.003.012l-.002.018-1.616 11.047h-9.708l.364 2.296c.152.954.642 3.415 1.918 5.667zm14.434-15.61l-.003-.067v-.148l.001-.029.003-.057a3.491 3.491 0 0 1 .23-1.103c.105-.279.245-.54.408-.778a3.73 3.73 0 0 1 .561-.635c.205-.185.429-.34.659-.469.115-.065.23-.12.35-.172.061-.026.127-.053.176-.068l.039-.014.01-.004.005-.001a.67.67 0 0 0 .022-.009h-.002.002l.34.793-.009.005-.016.008.01-.004-.004.002-.01.005-.036.02c-.054.027-.088.05-.127.073a2.99 2.99 0 0 0-.684.57 2.77 2.77 0 0 0-.587 1.057 2.634 2.634 0 0 0-.104.756V21.342l.002.01c.001.032.003.07.005.081l.003.027.004.034c.002.023.007.046.01.069.008.045.017.091.03.138.093.374.309.774.56 1.175.251.405.54.814.793 1.266.128.227.246.465.342.725a2.9 2.9 0 0 1 .184.835c.004.073.005.147.002.222l-.004.08-.007.101c-.004.071-.013.13-.02.193-.01.062-.019.123-.031.184a3.662 3.662 0 0 1-.847 1.719 3.67 3.67 0 0 1-1.218.898c-.06.03-.11.048-.142.062a.596.596 0 0 0-.022.01l-.008.002-.004.002s-.002 0-.003-.003l-.005-.008-.015-.03-.122-.24-.057-.117-.052-.119-.105-.248-.013-.031-.004-.009c-.001-.004-.003-.004-.002-.003l.004-.002a.157.157 0 0 1 .02-.012c.024-.015.059-.033.102-.062a2.97 2.97 0 0 0 .812-.767 2.75 2.75 0 0 0 .383-.766c.046-.148.082-.306.101-.47.007-.041.008-.084.013-.125.002-.041.006-.088.006-.123v-.059-.08c0-.034-.003-.07-.007-.105-.03-.284-.183-.635-.405-1.01-.221-.377-.502-.777-.777-1.228a7.351 7.351 0 0 1-.394-.726 3.908 3.908 0 0 1-.29-.858 3.16 3.16 0 0 1-.04-.237c-.004-.04-.009-.08-.012-.121l-.004-.062z"/>
    </g>
</svg>